<svg preserveAspectRatio="none" width="100%" height="100%" overflow="visible" style="display: block;" viewBox="0 0 275.978 316.803" fill="none" xmlns="http://www.w3.org/2000/svg">
<g id="dk-curves">
<path id="Vector" opacity="0.3" d="M30.4797 136.339C5.49988 114.636 1.9935 135.316 0.329883 135.623C0.329883 135.623 -0.412345 140.614 0.329883 158.811L243.832 299.348V200.452C216.139 150.877 197.814 116.248 179.795 132.244C148.571 159.911 133.368 178.493 96.2308 140.102C74.2199 117.349 60.4759 162.394 30.4797 136.339Z" fill="url(#paint0_linear_0_4)"/>
<path id="Vector_2" opacity="0.3" d="M62.6513 153.795C37.6715 132.091 34.1651 152.745 32.4759 153.078C32.4759 153.078 31.7336 158.069 32.4759 176.266L275.978 316.803V217.908C236.563 160.679 210.585 171.327 188.062 179.593C166 187.681 157.912 170.789 129.989 146.705C107.031 126.895 92.6475 179.849 62.6513 153.795Z" fill="url(#paint1_linear_0_4)"/>
<path id="Vector_3" d="M196.175 130.965C196.175 128.917 194.973 126.588 193.514 125.744C192.029 124.899 190.852 125.846 190.852 127.894C190.852 129.941 192.055 132.27 193.514 133.115C194.973 133.985 196.175 133.012 196.175 130.965Z" fill="url(#paint2_linear_0_4)"/>
<path id="Vector_4" d="M125.561 144.734C125.561 142.764 124.333 140.46 122.797 139.59C121.262 138.72 120.033 139.59 120.033 141.561C120.033 143.531 121.262 145.835 122.797 146.705C124.307 147.575 125.561 146.705 125.561 144.734Z" fill="url(#paint3_linear_0_4)"/>
<path id="Vector_5" opacity="0.07" d="M179.13 3.86907C179.13 2.14917 180.991 1.07399 182.481 1.93346L224.141 25.9677C225.524 26.7659 226.376 28.2417 226.376 29.839V116.244C226.376 117.964 224.515 119.039 223.025 118.179L180.248 93.5002C179.556 93.1011 179.13 92.3632 179.13 91.5646V3.86907Z" fill="var(--fill-0, white)"/>
<path id="Vector_6" opacity="0.3" d="M217.162 37.8244C217.162 36.2272 216.31 34.7514 214.926 33.9532L173.266 9.91833C171.777 9.05899 169.915 10.1337 169.915 11.8533L169.891 99.5491C169.89 100.348 170.317 101.087 171.009 101.486L189.739 112.282C190.114 112.499 190.419 112.82 190.615 113.206L192.336 116.594C192.955 117.811 194.539 118.145 195.596 117.282C196.284 116.721 197.247 116.643 198.016 117.085L213.814 126.172C215.303 127.029 217.162 125.954 217.162 124.235V37.8244Z" fill="url(#paint4_linear_0_4)"/>
<path id="Vector_7" opacity="0.1" d="M210.969 64.1899C210.969 67.1589 210.534 69.8718 209.715 72.1497C208.896 74.4276 207.693 76.2191 206.183 77.4477C204.673 78.6762 202.856 79.2904 200.885 79.2904C198.914 79.2904 196.764 78.6506 194.64 77.3965V54.7457L210.969 64.1899Z" fill="var(--fill-0, white)"/>
<path id="Vector_8" opacity="0.3" d="M194.64 77.4219C191.773 75.7582 188.958 73.0965 186.475 69.6669C183.993 66.2373 181.92 62.1934 180.486 57.9192C179.053 53.645 178.285 49.294 178.285 45.3269C178.285 41.3598 179.053 37.8791 180.486 35.2685L194.64 54.7711V77.4219Z" fill="var(--fill-0, white)"/>
<path id="Vector_9" d="M210.969 64.1899C210.969 59.1991 209.792 53.6708 207.591 48.4496C205.389 43.2284 202.318 38.6215 198.863 35.3198C195.382 32.0182 191.697 30.2266 188.369 30.2266C185.042 30.2266 182.278 31.9926 180.461 35.2687L194.614 54.7713L210.969 64.1899Z" fill="url(#paint5_linear_0_4)"/>
<path id="Vector_10" opacity="0.15" d="M176.084 78.3946L204.877 95.0051V98.4859L176.084 81.8754V78.3946Z" fill="var(--fill-0, white)"/>
<path id="Vector_11" opacity="0.15" d="M176.084 85.2027L210.994 105.345V108.826L176.084 88.6834V85.2027Z" fill="var(--fill-0, white)"/>
<path id="Vector_12" opacity="0.15" d="M176.084 92.0107L198.709 105.064V108.544L176.084 95.4915V92.0107Z" fill="var(--fill-0, white)"/>
<path id="Vector_13" opacity="0.07" d="M108.26 17.741C108.26 16.0211 110.121 14.9459 111.611 15.8054L153.271 39.8397C154.654 40.6379 155.506 42.1137 155.506 43.7109V130.116C155.506 131.836 153.645 132.911 152.155 132.051L109.378 107.372C108.686 106.973 108.26 106.235 108.26 105.437V17.741Z" fill="var(--fill-0, white)"/>
<path id="Vector_14" opacity="0.3" d="M146.421 51.7477C146.421 50.1504 145.568 48.6746 144.185 47.8765L102.524 23.8416C101.035 22.9822 99.1734 24.0569 99.1729 25.7766L99.1488 113.497C99.1485 114.297 99.5755 115.035 100.268 115.434L119.02 126.23C119.397 126.447 119.703 126.77 119.899 127.158L121.598 130.514C122.214 131.732 123.798 132.068 124.856 131.205C125.543 130.644 126.504 130.566 127.273 131.008L143.072 140.095C144.562 140.952 146.421 139.877 146.421 138.158V51.7477Z" fill="url(#paint6_linear_0_4)"/>
<path id="Vector_15" opacity="0.1" d="M140.227 78.1384C140.227 82.1055 139.459 85.5863 138.026 88.1969C136.592 90.8075 134.519 92.4711 132.037 93.0341L123.872 68.6942L140.227 78.1384Z" fill="var(--fill-0, white)"/>
<path id="Vector_16" opacity="0.3" d="M132.062 93.0342C128.94 93.7252 125.331 92.6247 121.748 89.9373C118.19 87.2244 114.863 83.0525 112.329 78.0617L123.898 68.7199L132.062 93.0342Z" fill="var(--fill-0, white)"/>
<path id="Vector_17" d="M140.227 78.1387C140.227 74.402 139.561 70.3581 138.307 66.3399C137.028 62.3216 135.21 58.4569 132.984 55.1041C130.757 51.7513 128.172 48.9871 125.51 47.0675C122.823 45.148 120.136 44.1498 117.653 44.1498C115.17 44.1498 112.969 45.1224 111.28 47.0164C109.565 48.9103 108.413 51.6489 107.876 55.0017C107.364 58.3545 107.492 62.1936 108.26 66.2119C109.028 70.2302 110.435 74.274 112.355 78.0108L123.923 68.6689L140.227 78.1387Z" fill="url(#paint7_linear_0_4)"/>
<path id="Vector_18" opacity="0.15" d="M105.342 92.3431L138.026 111.206V114.687L105.342 95.8239V92.3431Z" fill="var(--fill-0, white)"/>
<path id="Vector_19" opacity="0.15" d="M105.342 99.1259L139.28 118.731V122.212L105.342 102.607V99.1259Z" fill="var(--fill-0, white)"/>
<path id="Vector_20" opacity="0.15" d="M105.342 105.934L127.967 118.987V122.468L105.342 109.415V105.934Z" fill="var(--fill-0, white)"/>
</g>
<defs>
<linearGradient id="paint0_linear_0_4" x1="166.397" y1="76.6763" x2="135.389" y2="175.202" gradientUnits="userSpaceOnUse">
<stop stop-color="white"/>
<stop offset="1" stop-color="white" stop-opacity="0"/>
</linearGradient>
<linearGradient id="paint1_linear_0_4" x1="179.82" y1="119.089" x2="162.209" y2="198.809" gradientUnits="userSpaceOnUse">
<stop stop-color="white"/>
<stop offset="1" stop-color="white" stop-opacity="0"/>
</linearGradient>
<linearGradient id="paint2_linear_0_4" x1="196.175" y1="133.434" x2="196.175" y2="125.435" gradientUnits="userSpaceOnUse">
<stop stop-color="#6A85B6"/>
<stop offset="1" stop-color="#BAC8E0"/>
</linearGradient>
<linearGradient id="paint3_linear_0_4" x1="125.561" y1="147.042" x2="125.561" y2="139.253" gradientUnits="userSpaceOnUse">
<stop stop-color="#6A85B6"/>
<stop offset="1" stop-color="#BAC8E0"/>
</linearGradient>
<linearGradient id="paint4_linear_0_4" x1="193.526" y1="23.5217" x2="193.526" y2="138.274" gradientUnits="userSpaceOnUse">
<stop stop-color="white" stop-opacity="0"/>
<stop offset="1" stop-color="white"/>
</linearGradient>
<linearGradient id="paint5_linear_0_4" x1="210.969" y1="64.1899" x2="210.969" y2="30.2266" gradientUnits="userSpaceOnUse">
<stop stop-color="#6A85B6"/>
<stop offset="1" stop-color="#BAC8E0"/>
</linearGradient>
<linearGradient id="paint6_linear_0_4" x1="122.785" y1="36.7474" x2="122.785" y2="154.806" gradientUnits="userSpaceOnUse">
<stop stop-color="white" stop-opacity="0"/>
<stop offset="1" stop-color="white"/>
</linearGradient>
<linearGradient id="paint7_linear_0_4" x1="140.227" y1="78.1387" x2="140.227" y2="44.1498" gradientUnits="userSpaceOnUse">
<stop stop-color="#6A85B6"/>
<stop offset="1" stop-color="#BAC8E0"/>
</linearGradient>
</defs>
</svg>
